<svg width="364" height="173" viewBox="0 0 364 173" fill="none" xmlns="http://www.w3.org/2000/svg">
<path d="M126.138 164.066C126.138 158.736 122.249 154.413 117.444 154.413C117.388 154.413 117.331 154.419 117.269 154.425C117.507 152.887 117.633 151.311 117.633 149.697C117.633 134.302 106.386 121.82 92.5166 121.82C81.4389 121.82 72.0424 129.789 68.7053 140.835C67.0932 140.196 65.3556 139.829 63.5365 139.829C55.2126 139.829 48.4694 147.127 48.4694 156.128C48.4694 160.034 49.7428 163.616 51.8567 166.421H125.856C126.025 165.667 126.126 164.876 126.126 164.06L126.138 164.066Z" fill="#82C241"/>
<path d="M268.805 147.317C276.676 147.317 283.057 140.949 283.057 133.094C283.057 125.238 276.676 118.87 268.805 118.87C260.935 118.87 254.554 125.238 254.554 133.094C254.554 140.949 260.935 147.317 268.805 147.317Z" fill="#82C241"/>
<path d="M103.638 81.9033H91.8391V90.1259H103.638V81.9033Z" fill="#B8372B"/>
<path d="M132.951 40.4165L91.8391 81.903V90.1319L132.951 48.6454L174.056 90.1319V81.903L132.951 40.4165Z" fill="#EF5548"/>
<path d="M264.383 81.903H174.056L132.951 40.4165H223.278L264.383 81.903Z" fill="#D84030"/>
<path d="M259.716 81.9033H174.056V152.849H259.716V81.9033Z" fill="#E59C24"/>
<path d="M259.716 152.849H174.056V166.427H259.716V152.849Z" fill="#DB542A"/>
<path d="M96.3993 166.42H174.056V152.843H96.3993V166.42Z" fill="#F6863A"/>
<path d="M264.402 81.8589H174.05V90.1321H264.402V81.8589Z" fill="#B8372B"/>
<path d="M259.735 90.0879H174.05V97.937H259.735V90.0879Z" fill="#DB542A"/>
<path d="M96.437 93.6072V152.849H174.056V98.2344L132.951 56.8745L96.437 93.6072Z" fill="#FCB017"/>
<path d="M96.437 85.4858V93.7147L132.951 56.8744L174.056 98.3609V90.132L132.951 48.6455L96.437 85.4858Z" fill="#F6863A"/>
<path d="M218.222 34.1689H201.568V55.0704H218.222V34.1689Z" fill="#B8372B"/>
<path d="M201.568 55.0832V34.2007H194.047V47.4936L201.568 55.0832Z" fill="#EF5548"/>
<path d="M220.411 29.0229H201.568V34.1692H220.411V29.0229Z" fill="#B8372B"/>
<path d="M201.568 29.0293H191.325V34.1755H201.568V29.0293Z" fill="#EF5548"/>
<path d="M218.222 34.1689H201.568V37.891H218.222V34.1689Z" fill="#A92D29"/>
<path d="M201.568 34.1753H194.047V37.8973H201.568V34.1753Z" fill="#D84F4E"/>
<path d="M201.141 17.6732C205.978 17.6732 209.898 13.7169 209.898 8.8366C209.898 3.95628 205.978 0 201.141 0C196.305 0 192.385 3.95628 192.385 8.8366C192.385 13.7169 196.305 17.6732 201.141 17.6732Z" fill="#E2F3F4"/>
<path d="M206.373 26.9403C208.438 26.9403 210.111 25.2512 210.111 23.1677C210.111 21.0841 208.438 19.395 206.373 19.395C204.308 19.395 202.634 21.0841 202.634 23.1677C202.634 25.2512 204.308 26.9403 206.373 26.9403Z" fill="#E2F3F4"/>
<path d="M213.957 17.6669C215.252 17.6669 216.303 16.607 216.303 15.2995C216.303 13.992 215.252 12.9321 213.957 12.9321C212.661 12.9321 211.611 13.992 211.611 15.2995C211.611 16.607 212.661 17.6669 213.957 17.6669Z" fill="#E2F3F4"/>
<path d="M207.082 109.831H185.943V131.163H207.082V109.831Z" fill="white"/>
<path d="M210.689 133.752H185.943V137.309H210.689V133.752Z" fill="#DB542A"/>
<path d="M207.075 131.163H210.707V109.831H207.075V131.163Z" fill="#FCB017"/>
<path d="M191.87 131.163H185.943V133.752H191.87V131.163Z" fill="#D84030"/>
<path d="M191.826 133.752H217.062V131.163H191.826V133.752Z" fill="#B8372B"/>
<path d="M205.156 114.028L190.101 129.226H194.06L205.156 118.022V114.028Z" fill="#65CBE0"/>
<path d="M187.862 111.768V126.84L202.797 111.768H187.862Z" fill="#65CBE0"/>
<path d="M205.156 118.022L194.06 129.226H205.156V129.22V118.022Z" fill="#D0E8F6"/>
<path d="M205.156 111.768H202.797L187.862 126.84V129.226H190.101L205.156 114.028V111.768Z" fill="#D0E8F6"/>
<path d="M246.707 109.831H225.567V130.967H246.707V109.831Z" fill="white"/>
<path d="M250.313 133.53H225.567V137.05H250.313V133.53Z" fill="#DB542A"/>
<path d="M246.7 130.966H250.332V109.831H246.7V130.966Z" fill="#FCB017"/>
<path d="M231.495 130.966H225.567V133.53H231.495V130.966Z" fill="#D84030"/>
<path d="M231.451 133.524H256.686V130.96H231.451V133.524Z" fill="#B8372B"/>
<path d="M244.781 113.99L229.726 129.042H233.684L244.781 117.946V113.99Z" fill="#65CBE0"/>
<path d="M227.487 111.755V126.681L242.422 111.755H227.487Z" fill="#65CBE0"/>
<path d="M244.781 117.946L233.684 129.042H244.781V117.946Z" fill="#D0E8F6"/>
<path d="M244.781 111.755H242.422L227.487 126.681V129.042H229.726L244.781 113.99V111.755Z" fill="#D0E8F6"/>
<path d="M152.484 104.083H112.765V153.217H152.484V104.083Z" fill="#DB542A"/>
<path d="M152.478 104.083H118.072V153.217H152.478V104.083Z" fill="#902A1D"/>
<path d="M152.478 104.083H118.072V109.685H152.478V104.083Z" fill="#661C18"/>
<path d="M127.976 82.8526C127.976 78.1874 131.012 74.2312 135.196 72.8892C134.205 72.5727 133.151 72.3955 132.06 72.3955C126.339 72.3955 121.704 77.0733 121.704 82.8462C121.704 88.6192 126.339 93.297 132.06 93.297C133.151 93.297 134.205 93.1261 135.196 92.8032C131.012 91.4613 127.976 87.5114 127.976 82.8399V82.8526Z" fill="#DB542A"/>
<path d="M129.764 82.8525C129.764 78.2253 133.371 74.4527 137.906 74.2248C137.078 73.6551 136.169 73.1993 135.196 72.8892C131.012 74.2311 127.976 78.181 127.976 82.8525C127.976 87.524 131.012 91.4739 135.196 92.8158C136.169 92.5057 137.078 92.0499 137.906 91.4802C133.371 91.2523 129.764 87.486 129.764 82.8525Z" fill="white"/>
<path d="M129.764 82.8523C129.764 87.4795 133.371 91.2522 137.906 91.48C140.628 89.6 142.416 86.4351 142.416 82.8523C142.416 79.2696 140.628 76.1109 137.906 74.2246C133.371 74.4525 129.764 78.2188 129.764 82.8523Z" fill="#65CBE0"/>
<path d="M152.559 152.849H140.177V159.894H152.559V152.849Z" fill="#DB542A"/>
<path d="M152.565 159.895H124.162V166.357H152.565V159.895Z" fill="#DB542A"/>
<path d="M87.1157 166.357H124.162V159.755H87.1157V166.357Z" fill="#FCB017"/>
<path d="M103.212 159.882H140.258V152.811H103.212V159.882Z" fill="#FCB017"/>
<path d="M112.746 89.8027H104.303C103.388 89.8027 102.647 90.5509 102.647 91.4738V92.0752C102.647 92.9981 103.388 93.7463 104.303 93.7463H112.746C113.661 93.7463 114.402 92.9981 114.402 92.0752V91.4738C114.402 90.5509 113.661 89.8027 112.746 89.8027Z" fill="#F6863A"/>
<path d="M156.523 84.6313H148.08C147.166 84.6313 146.424 85.3795 146.424 86.3025V86.9038C146.424 87.8267 147.166 88.5749 148.08 88.5749H156.523C157.438 88.5749 158.179 87.8267 158.179 86.9038V86.3025C158.179 85.3795 157.438 84.6313 156.523 84.6313Z" fill="#F6863A"/>
<path d="M170.186 106.615H161.742C160.828 106.615 160.086 107.363 160.086 108.286V108.888C160.086 109.811 160.828 110.559 161.742 110.559H170.186C171.1 110.559 171.842 109.811 171.842 108.888V108.286C171.842 107.363 171.1 106.615 170.186 106.615Z" fill="#F6863A"/>
<path d="M165.701 128.162H157.257C156.343 128.162 155.601 128.91 155.601 129.833V130.435C155.601 131.357 156.343 132.106 157.257 132.106H165.701C166.615 132.106 167.357 131.357 167.357 130.435V129.833C167.357 128.91 166.615 128.162 165.701 128.162Z" fill="#F6863A"/>
<path d="M108.688 139.582H100.245C99.3299 139.582 98.5885 140.33 98.5885 141.253V141.854C98.5885 142.777 99.3299 143.525 100.245 143.525H108.688C109.602 143.525 110.344 142.777 110.344 141.854V141.253C110.344 140.33 109.602 139.582 108.688 139.582Z" fill="#F6863A"/>
<path d="M169.113 48.918H159.07C157.775 48.918 156.724 49.9779 156.724 51.2854V51.2917C156.724 52.5992 157.775 53.6591 159.07 53.6591H169.113C170.409 53.6591 171.459 52.5992 171.459 51.2917V51.2854C171.459 49.9779 170.409 48.918 169.113 48.918Z" fill="#B8372B"/>
<path d="M190.679 62.7046H180.636C179.34 62.7046 178.29 63.7645 178.29 65.072V65.0783C178.29 66.3858 179.34 67.4457 180.636 67.4457H190.679C191.974 67.4457 193.025 66.3858 193.025 65.0783V65.072C193.025 63.7645 191.974 62.7046 190.679 62.7046Z" fill="#B8372B"/>
<path d="M221.001 71.3257H210.958C209.663 71.3257 208.612 72.3856 208.612 73.6931V73.6994C208.612 75.0069 209.663 76.0668 210.958 76.0668H221.001C222.297 76.0668 223.347 75.0069 223.347 73.6994V73.6931C223.347 72.3856 222.297 71.3257 221.001 71.3257Z" fill="#B8372B"/>
<path d="M234.882 60.5522H224.84C223.544 60.5522 222.494 61.6122 222.494 62.9196V62.926C222.494 64.2335 223.544 65.2934 224.84 65.2934H234.882C236.178 65.2934 237.228 64.2335 237.228 62.926V62.9196C237.228 61.6122 236.178 60.5522 234.882 60.5522Z" fill="#B8372B"/>
<path d="M304.497 164.648C304.497 160.629 301.273 157.375 297.29 157.375C297.24 157.375 297.196 157.381 297.146 157.381C297.34 156.223 297.447 155.033 297.447 153.818C297.447 142.215 288.126 132.809 276.628 132.809C267.444 132.809 259.654 138.809 256.887 147.14C255.551 146.659 254.108 146.38 252.603 146.38C245.703 146.38 240.114 151.881 240.114 158.66C240.114 161.604 241.168 164.3 242.924 166.421H304.272C304.416 165.851 304.497 165.256 304.497 164.642V164.648Z" fill="#A2CD3A"/>
<path d="M304.497 164.648C304.497 160.629 301.273 157.375 297.29 157.375C297.24 157.375 297.196 157.381 297.146 157.381C297.34 156.223 297.447 155.033 297.447 153.818C297.447 142.215 288.126 132.809 276.628 132.809C267.444 132.809 259.654 138.809 256.887 147.14C255.551 146.659 254.108 146.38 252.603 146.38C245.703 146.38 240.114 151.881 240.114 158.66C240.114 161.604 241.168 164.3 242.924 166.421H304.272C304.416 165.851 304.497 165.256 304.497 164.642V164.648Z" fill="#A2CD3A"/>
<path d="M359.904 165.775H3.52528C1.57832 165.775 0 167.366 0 169.329C0 171.292 1.57832 172.883 3.52528 172.883H359.904C361.851 172.883 363.43 171.292 363.43 169.329C363.43 167.366 361.851 165.775 359.904 165.775Z" fill="#82C241"/>
<path d="M276.145 150.266C278.843 150.266 281.031 148.059 281.031 145.335C281.031 142.612 278.843 140.404 276.145 140.404C273.446 140.404 271.258 142.612 271.258 145.335C271.258 148.059 273.446 150.266 276.145 150.266Z" fill="#CDDF6E"/>
<path d="M256.53 160.932C258.078 160.932 259.334 159.666 259.334 158.103C259.334 156.54 258.078 155.273 256.53 155.273C254.981 155.273 253.726 156.54 253.726 158.103C253.726 159.666 254.981 160.932 256.53 160.932Z" fill="#CDDF6E"/>
<path d="M273.184 127.15C274.732 127.15 275.988 125.883 275.988 124.32C275.988 122.758 274.732 121.491 273.184 121.491C271.635 121.491 270.38 122.758 270.38 124.32C270.38 125.883 271.635 127.15 273.184 127.15Z" fill="#CDDF6E"/>
<path d="M62.5015 162.711C66.7488 162.711 70.1919 159.237 70.1919 154.951C70.1919 150.665 66.7488 147.19 62.5015 147.19C58.2543 147.19 54.8112 150.665 54.8112 154.951C54.8112 159.237 58.2543 162.711 62.5015 162.711Z" fill="#CDDF6E"/>
<path d="M87.6426 132.973C89.5895 132.973 91.1679 131.381 91.1679 129.416C91.1679 127.451 89.5895 125.858 87.6426 125.858C85.6956 125.858 84.1173 127.451 84.1173 129.416C84.1173 131.381 85.6956 132.973 87.6426 132.973Z" fill="#CDDF6E"/>
<path d="M83.603 151.476C85.1724 151.476 86.4446 150.192 86.4446 148.608C86.4446 147.025 85.1724 145.741 83.603 145.741C82.0337 145.741 80.7615 147.025 80.7615 148.608C80.7615 150.192 82.0337 151.476 83.603 151.476Z" fill="#CDDF6E"/>
</svg>
